<?xml version="1.0" standalone="no"?>
<!DOCTYPE svg PUBLIC "-//W3C//DTD SVG 20010904//EN"
 "http://www.w3.org/TR/2001/REC-SVG-20010904/DTD/svg10.dtd">
<svg version="1.0" xmlns="http://www.w3.org/2000/svg"
 width="3610.000000pt" height="2864.000000pt" viewBox="0 0 3610.000000 2864.000000"
 preserveAspectRatio="xMidYMid meet">

<g transform="translate(0.000000,2864.000000) scale(0.100000,-0.100000)"
fill="#000000" stroke="none">
<path d="M23597 26395 c-1246 -1229 -2268 -2235 -2271 -2235 -2 0 -770 781
-1706 1736 l-1703 1736 -1811 -1811 c-996 -996 -1814 -1811 -1818 -1811 -4 0
-1008 929 -2230 2065 -1222 1136 -2225 2065 -2228 2065 -5 0 -8806 -8905
-9537 -9650 l-292 -297 2097 -2138 c1153 -1176 2098 -2141 2100 -2145 2 -4
-794 -806 -1767 -1783 l-1771 -1774 4616 -4667 c2539 -2567 4620 -4666 4624
-4664 5 2 801 783 1768 1737 968 954 1763 1732 1768 1730 5 -2 913 -926 2018
-2054 1105 -1127 2093 -2135 2197 -2240 l189 -189 2321 2327 c1276 1280 2324
2327 2328 2327 5 0 3214 -2977 3387 -3142 l32 -30 4427 4482 4427 4482 -109
112 c-61 61 -678 692 -1373 1401 -695 710 -1369 1397 -1499 1528 l-236 237
2279 2279 2280 2280 -806 813 c-443 447 -2743 2773 -5112 5168 -2369 2395
-4310 4356 -4314 4358 -4 1 -1028 -1004 -2275 -2233z m6375 -3932 c2262 -2286
4113 -4160 4113 -4164 0 -4 -795 -804 -1768 -1778 l-1767 -1770 -4110 4191
c-2261 2306 -4110 4195 -4110 4199 0 8 3516 3479 3524 3479 3 0 1856 -1871
4118 -4157z m-18391 2113 l1699 -1579 -3090 -3096 c-1699 -1703 -3515 -3521
-4035 -4041 l-947 -945 -166 172 c-92 94 -813 829 -1602 1633 -789 803 -1435
1465 -1435 1471 0 13 7858 7968 7868 7965 5 -1 773 -712 1708 -1580z m8086
-17287 c956 -889 1747 -1626 1757 -1638 l20 -22 -1800 -1799 -1799 -1799
-1695 1729 c-932 952 -1695 1734 -1695 1738 0 15 3449 3412 3462 3409 6 -1
794 -729 1750 -1618z"/>
</g>
</svg>
